<svg width="173" height="26" viewBox="0 0 173 26" fill="none" xmlns="http://www.w3.org/2000/svg">
<path d="M12.8799 1.28418L16.4102 25H10.0967L9.78906 20.7373H7.57715L7.21094 25H0.824219L3.95898 1.28418H12.8799ZM9.61328 16.5332C9.30078 13.8477 8.98828 10.5322 8.67578 6.58691C8.05078 11.1182 7.66016 14.4336 7.50391 16.5332H9.61328ZM17.4648 1.28418H27.748V6.03027H23.6318V10.5273H27.4844V15.0391H23.6318V20.2539H28.1582V25H17.4648V1.28418ZM29.9453 1.28418H34.3105C37.2207 1.28418 39.1885 1.39648 40.2139 1.62109C41.249 1.8457 42.0889 2.42188 42.7334 3.34961C43.3877 4.26758 43.7148 5.7373 43.7148 7.75879C43.7148 9.60449 43.4854 10.8447 43.0264 11.4795C42.5674 12.1143 41.6641 12.4951 40.3164 12.6221C41.5371 12.9248 42.3574 13.3301 42.7773 13.8379C43.1973 14.3457 43.4561 14.8145 43.5537 15.2441C43.6611 15.6641 43.7148 16.8311 43.7148 18.7451V25H37.9873V17.1191C37.9873 15.8496 37.8848 15.0635 37.6797 14.7607C37.4844 14.458 36.9619 14.3066 36.1123 14.3066V25H29.9453V1.28418ZM36.1123 5.3418V10.6152C36.8057 10.6152 37.2891 10.5225 37.5625 10.3369C37.8457 10.1416 37.9873 9.52148 37.9873 8.47656V7.17285C37.9873 6.4209 37.8506 5.92773 37.5771 5.69336C37.3135 5.45898 36.8252 5.3418 36.1123 5.3418ZM60.209 15.1709C60.209 17.5537 60.1504 19.2432 60.0332 20.2393C59.9258 21.2256 59.5742 22.1289 58.9785 22.9492C58.3926 23.7695 57.5967 24.3994 56.5908 24.8389C55.585 25.2783 54.4131 25.498 53.0752 25.498C51.8057 25.498 50.6631 25.293 49.6475 24.8828C48.6416 24.4629 47.8311 23.8379 47.2158 23.0078C46.6006 22.1777 46.2344 21.2744 46.1172 20.2979C46 19.3213 45.9414 17.6123 45.9414 15.1709V11.1133C45.9414 8.73047 45.9951 7.0459 46.1025 6.05957C46.2197 5.06348 46.5713 4.15527 47.1572 3.33496C47.7529 2.51465 48.5537 1.88477 49.5596 1.44531C50.5654 1.00586 51.7373 0.786133 53.0752 0.786133C54.3447 0.786133 55.4824 0.996094 56.4883 1.41602C57.5039 1.82617 58.3193 2.44629 58.9346 3.27637C59.5498 4.10645 59.916 5.00977 60.0332 5.98633C60.1504 6.96289 60.209 8.67188 60.209 11.1133V15.1709ZM54.042 7.37793C54.042 6.27441 53.9785 5.57129 53.8516 5.26855C53.7344 4.95605 53.4854 4.7998 53.1045 4.7998C52.7822 4.7998 52.5332 4.92676 52.3574 5.18066C52.1914 5.4248 52.1084 6.15723 52.1084 7.37793V18.4521C52.1084 19.8291 52.1621 20.6787 52.2695 21.001C52.3867 21.3232 52.6504 21.4844 53.0605 21.4844C53.4805 21.4844 53.749 21.2988 53.8662 20.9277C53.9834 20.5566 54.042 19.6729 54.042 18.2764V7.37793ZM81.5518 1.28418V25H76.1611V8.98926L74.0078 25H70.1846L67.9141 9.35547V25H62.5234V1.28418H70.5068C70.7412 2.70996 70.9902 4.38965 71.2539 6.32324L72.1035 12.3584L73.5098 1.28418H81.5518ZM84.0273 1.28418H94.3105V6.03027H90.1943V10.5273H94.0469V15.0391H90.1943V20.2539H94.7207V25H84.0273V1.28418ZM110.277 1.28418V25H104.872L101.664 14.2188V25H96.5078V1.28418H101.664L105.121 11.9629V1.28418H110.277ZM112.768 1.28418H117.382C120.36 1.28418 122.372 1.4209 123.417 1.69434C124.472 1.96777 125.272 2.41699 125.819 3.04199C126.366 3.66699 126.708 4.36523 126.845 5.13672C126.981 5.89844 127.05 7.40234 127.05 9.64844V17.9541C127.05 20.083 126.947 21.5088 126.742 22.2314C126.547 22.9443 126.2 23.5059 125.702 23.916C125.204 24.3164 124.589 24.5996 123.856 24.7656C123.124 24.9219 122.021 25 120.546 25H112.768V1.28418ZM118.935 5.3418V20.9424C119.823 20.9424 120.37 20.7666 120.575 20.415C120.78 20.0537 120.883 19.082 120.883 17.5V8.28613C120.883 7.21191 120.849 6.52344 120.78 6.2207C120.712 5.91797 120.556 5.69824 120.312 5.56152C120.067 5.41504 119.608 5.3418 118.935 5.3418ZM141.771 1.28418V6.03027H138.109V25H131.942V6.03027H128.295V1.28418H141.771ZM153.827 1.28418L157.357 25H151.044L150.736 20.7373H148.524L148.158 25H141.771L144.906 1.28418H153.827ZM150.561 16.5332C150.248 13.8477 149.936 10.5322 149.623 6.58691C148.998 11.1182 148.607 14.4336 148.451 16.5332H150.561ZM172.562 10.0146H166.396V7.86133C166.396 6.50391 166.337 5.6543 166.22 5.3125C166.103 4.9707 165.824 4.7998 165.385 4.7998C165.004 4.7998 164.745 4.94629 164.608 5.23926C164.472 5.53223 164.403 6.28418 164.403 7.49512V18.877C164.403 19.9414 164.472 20.6445 164.608 20.9863C164.745 21.3184 165.019 21.4844 165.429 21.4844C165.878 21.4844 166.181 21.2939 166.337 20.9131C166.503 20.5322 166.586 19.79 166.586 18.6865V15.874H165.341V12.2705H172.562V25H168.681L168.109 23.3008C167.689 24.0332 167.157 24.585 166.513 24.9561C165.878 25.3174 165.126 25.498 164.257 25.498C163.222 25.498 162.25 25.249 161.342 24.751C160.443 24.2432 159.76 23.6182 159.291 22.876C158.822 22.1338 158.529 21.3574 158.412 20.5469C158.295 19.7266 158.236 18.501 158.236 16.8701V9.82422C158.236 7.55859 158.358 5.91309 158.603 4.8877C158.847 3.8623 159.545 2.9248 160.697 2.0752C161.859 1.21582 163.358 0.786133 165.194 0.786133C167.001 0.786133 168.5 1.15723 169.691 1.89941C170.883 2.6416 171.659 3.52539 172.021 4.55078C172.382 5.56641 172.562 7.0459 172.562 8.98926V10.0146Z" fill="black"/>
</svg>
